<svg width="1440" height="328" viewBox="0 0 1440 328" fill="none" xmlns="http://www.w3.org/2000/svg">
<rect width="1440" height="208" fill="white"/>
<g clip-path="url(#clip0_2271_20017)">
<rect width="1440" height="328" fill="white"/>
<path opacity="0.6" fill-rule="evenodd" clip-rule="evenodd" d="M1303 297.037L1342.08 279L1381.16 297.037L1342.08 315.074L1303 297.037Z" fill="white" fill-opacity="0.4"/>
<path opacity="0.8" fill-rule="evenodd" clip-rule="evenodd" d="M1303 297.037V333.111L1342.08 351.148V315.074L1303 297.037Z" fill="white" fill-opacity="0.4"/>
<path fill-rule="evenodd" clip-rule="evenodd" d="M1381.16 297.037V333.111L1342.08 351.148V315.074L1381.16 297.037Z" fill="white" fill-opacity="0.4"/>
<path opacity="0.6" fill-rule="evenodd" clip-rule="evenodd" d="M1225 297.037L1264.08 279L1303.16 297.037L1264.08 315.074L1225 297.037Z" fill="white" fill-opacity="0.4"/>
<path opacity="0.8" fill-rule="evenodd" clip-rule="evenodd" d="M1225 297.037V333.111L1264.08 351.148V315.074L1225 297.037Z" fill="white" fill-opacity="0.4"/>
<path fill-rule="evenodd" clip-rule="evenodd" d="M1303.16 297.037V333.111L1264.08 351.148V315.074L1303.16 297.037Z" fill="white" fill-opacity="0.4"/>
<path opacity="0.6" fill-rule="evenodd" clip-rule="evenodd" d="M1147 297.037L1186.08 279L1225.16 297.037L1186.08 315.074L1147 297.037Z" fill="white" fill-opacity="0.4"/>
<path opacity="0.8" fill-rule="evenodd" clip-rule="evenodd" d="M1147 297.037V333.111L1186.08 351.148V315.074L1147 297.037Z" fill="white" fill-opacity="0.4"/>
<path fill-rule="evenodd" clip-rule="evenodd" d="M1225.16 297.037V333.111L1186.08 351.148V315.074L1225.16 297.037Z" fill="white" fill-opacity="0.4"/>
<path opacity="0.6" fill-rule="evenodd" clip-rule="evenodd" d="M1069 297.037L1108.08 279L1147.16 297.037L1108.08 315.074L1069 297.037Z" fill="white" fill-opacity="0.4"/>
<path opacity="0.8" fill-rule="evenodd" clip-rule="evenodd" d="M1069 297.037V333.111L1108.08 351.148V315.074L1069 297.037Z" fill="white" fill-opacity="0.4"/>
<path fill-rule="evenodd" clip-rule="evenodd" d="M1147.16 297.037V333.111L1108.08 351.148V315.074L1147.16 297.037Z" fill="white" fill-opacity="0.4"/>
<path opacity="0.6" fill-rule="evenodd" clip-rule="evenodd" d="M991 297.037L1030.08 279L1069.16 297.037L1030.08 315.074L991 297.037Z" fill="white" fill-opacity="0.4"/>
<path opacity="0.8" fill-rule="evenodd" clip-rule="evenodd" d="M991 297.037V333.111L1030.08 351.148V315.074L991 297.037Z" fill="white" fill-opacity="0.4"/>
<path fill-rule="evenodd" clip-rule="evenodd" d="M1069.16 297.037V333.111L1030.08 351.148V315.074L1069.16 297.037Z" fill="white" fill-opacity="0.4"/>
<path opacity="0.6" fill-rule="evenodd" clip-rule="evenodd" d="M913 297.037L952.08 279L991.16 297.037L952.08 315.074L913 297.037Z" fill="white" fill-opacity="0.4"/>
<path opacity="0.8" fill-rule="evenodd" clip-rule="evenodd" d="M913 297.037V333.111L952.08 351.148V315.074L913 297.037Z" fill="white" fill-opacity="0.4"/>
<path fill-rule="evenodd" clip-rule="evenodd" d="M991.16 297.037V333.111L952.08 351.148V315.074L991.16 297.037Z" fill="white" fill-opacity="0.4"/>
<path opacity="0.6" fill-rule="evenodd" clip-rule="evenodd" d="M835 297.037L874.08 279L913.16 297.037L874.08 315.074L835 297.037Z" fill="white" fill-opacity="0.4"/>
<path opacity="0.8" fill-rule="evenodd" clip-rule="evenodd" d="M835 297.037V333.111L874.08 351.148V315.074L835 297.037Z" fill="white" fill-opacity="0.4"/>
<path fill-rule="evenodd" clip-rule="evenodd" d="M913.16 297.037V333.111L874.08 351.148V315.074L913.16 297.037Z" fill="white" fill-opacity="0.4"/>
<path opacity="0.6" fill-rule="evenodd" clip-rule="evenodd" d="M757 297.037L796.08 279L835.16 297.037L796.08 315.074L757 297.037Z" fill="white" fill-opacity="0.4"/>
<path opacity="0.8" fill-rule="evenodd" clip-rule="evenodd" d="M757 297.037V333.111L796.08 351.148V315.074L757 297.037Z" fill="white" fill-opacity="0.4"/>
<path fill-rule="evenodd" clip-rule="evenodd" d="M835.16 297.037V333.111L796.08 351.148V315.074L835.16 297.037Z" fill="white" fill-opacity="0.4"/>
<path opacity="0.6" fill-rule="evenodd" clip-rule="evenodd" d="M679 297.037L718.08 279L757.16 297.037L718.08 315.074L679 297.037Z" fill="white" fill-opacity="0.4"/>
<path opacity="0.8" fill-rule="evenodd" clip-rule="evenodd" d="M679 297.037V333.111L718.08 351.148V315.074L679 297.037Z" fill="white" fill-opacity="0.4"/>
<path fill-rule="evenodd" clip-rule="evenodd" d="M757.16 297.037V333.111L718.08 351.148V315.074L757.16 297.037Z" fill="white" fill-opacity="0.4"/>
<path opacity="0.6" fill-rule="evenodd" clip-rule="evenodd" d="M601 297.037L640.08 279L679.16 297.037L640.08 315.074L601 297.037Z" fill="white" fill-opacity="0.4"/>
<path opacity="0.8" fill-rule="evenodd" clip-rule="evenodd" d="M601 297.037V333.111L640.08 351.148V315.074L601 297.037Z" fill="white" fill-opacity="0.4"/>
<path fill-rule="evenodd" clip-rule="evenodd" d="M679.16 297.037V333.111L640.08 351.148V315.074L679.16 297.037Z" fill="white" fill-opacity="0.4"/>
<path opacity="0.6" fill-rule="evenodd" clip-rule="evenodd" d="M523 297.037L562.08 279L601.16 297.037L562.08 315.074L523 297.037Z" fill="white" fill-opacity="0.4"/>
<path opacity="0.8" fill-rule="evenodd" clip-rule="evenodd" d="M523 297.037V333.111L562.08 351.148V315.074L523 297.037Z" fill="white" fill-opacity="0.4"/>
<path fill-rule="evenodd" clip-rule="evenodd" d="M601.16 297.037V333.111L562.08 351.148V315.074L601.16 297.037Z" fill="white" fill-opacity="0.4"/>
<path opacity="0.6" fill-rule="evenodd" clip-rule="evenodd" d="M445 297.037L484.08 279L523.16 297.037L484.08 315.074L445 297.037Z" fill="white" fill-opacity="0.4"/>
<path opacity="0.8" fill-rule="evenodd" clip-rule="evenodd" d="M445 297.037V333.111L484.08 351.148V315.074L445 297.037Z" fill="white" fill-opacity="0.4"/>
<path fill-rule="evenodd" clip-rule="evenodd" d="M523.16 297.037V333.111L484.08 351.148V315.074L523.16 297.037Z" fill="white" fill-opacity="0.4"/>
<path opacity="0.6" fill-rule="evenodd" clip-rule="evenodd" d="M367 297.037L406.08 279L445.16 297.037L406.08 315.074L367 297.037Z" fill="white" fill-opacity="0.4"/>
<path opacity="0.8" fill-rule="evenodd" clip-rule="evenodd" d="M367 297.037V333.111L406.08 351.148V315.074L367 297.037Z" fill="white" fill-opacity="0.4"/>
<path fill-rule="evenodd" clip-rule="evenodd" d="M445.16 297.037V333.111L406.08 351.148V315.074L445.16 297.037Z" fill="white" fill-opacity="0.4"/>
<path opacity="0.6" fill-rule="evenodd" clip-rule="evenodd" d="M289 297.037L328.08 279L367.16 297.037L328.08 315.074L289 297.037Z" fill="white" fill-opacity="0.4"/>
<path opacity="0.8" fill-rule="evenodd" clip-rule="evenodd" d="M289 297.037V333.111L328.08 351.148V315.074L289 297.037Z" fill="white" fill-opacity="0.4"/>
<path fill-rule="evenodd" clip-rule="evenodd" d="M367.16 297.037V333.111L328.08 351.148V315.074L367.16 297.037Z" fill="white" fill-opacity="0.4"/>
<path opacity="0.6" fill-rule="evenodd" clip-rule="evenodd" d="M211 297.037L250.08 279L289.16 297.037L250.08 315.074L211 297.037Z" fill="white" fill-opacity="0.4"/>
<path opacity="0.8" fill-rule="evenodd" clip-rule="evenodd" d="M211 297.037V333.111L250.08 351.148V315.074L211 297.037Z" fill="white" fill-opacity="0.4"/>
<path fill-rule="evenodd" clip-rule="evenodd" d="M289.16 297.037V333.111L250.08 351.148V315.074L289.16 297.037Z" fill="white" fill-opacity="0.4"/>
<path opacity="0.6" fill-rule="evenodd" clip-rule="evenodd" d="M133 297.037L172.08 279L211.16 297.037L172.08 315.074L133 297.037Z" fill="white" fill-opacity="0.4"/>
<path opacity="0.8" fill-rule="evenodd" clip-rule="evenodd" d="M133 297.037V333.111L172.08 351.148V315.074L133 297.037Z" fill="white" fill-opacity="0.4"/>
<path fill-rule="evenodd" clip-rule="evenodd" d="M211.16 297.037V333.111L172.08 351.148V315.074L211.16 297.037Z" fill="white" fill-opacity="0.4"/>
<path opacity="0.6" fill-rule="evenodd" clip-rule="evenodd" d="M55 297.037L94.08 279L133.16 297.037L94.08 315.074L55 297.037Z" fill="white" fill-opacity="0.4"/>
<path opacity="0.8" fill-rule="evenodd" clip-rule="evenodd" d="M55 297.037V333.111L94.08 351.148V315.074L55 297.037Z" fill="white" fill-opacity="0.4"/>
<path fill-rule="evenodd" clip-rule="evenodd" d="M133.16 297.037V333.111L94.08 351.148V315.074L133.16 297.037Z" fill="white" fill-opacity="0.4"/>
<path opacity="0.6" fill-rule="evenodd" clip-rule="evenodd" d="M1420 243.037L1459.08 225L1498.16 243.037L1459.08 261.074L1420 243.037Z" fill="#330072"/>
<path opacity="0.8" fill-rule="evenodd" clip-rule="evenodd" d="M1420 243.037V279.111L1459.08 297.148V261.074L1420 243.037Z" fill="#330072"/>
<path opacity="0.6" fill-rule="evenodd" clip-rule="evenodd" d="M1342 243.037L1381.08 225L1420.16 243.037L1381.08 261.074L1342 243.037Z" fill="white" fill-opacity="0.4"/>
<path opacity="0.8" fill-rule="evenodd" clip-rule="evenodd" d="M1342 243.037V279.111L1381.08 297.148V261.074L1342 243.037Z" fill="white" fill-opacity="0.4"/>
<path fill-rule="evenodd" clip-rule="evenodd" d="M1420.16 243.037V279.111L1381.08 297.148V261.074L1420.16 243.037Z" fill="white" fill-opacity="0.4"/>
<path opacity="0.6" fill-rule="evenodd" clip-rule="evenodd" d="M1264 243.037L1303.08 225L1342.16 243.037L1303.08 261.074L1264 243.037Z" fill="#005EB8"/>
<path opacity="0.8" fill-rule="evenodd" clip-rule="evenodd" d="M1264 243.037V279.111L1303.08 297.148V261.074L1264 243.037Z" fill="#005EB8"/>
<path fill-rule="evenodd" clip-rule="evenodd" d="M1342.16 243.037V279.111L1303.08 297.148V261.074L1342.16 243.037Z" fill="#005EB8"/>
<path opacity="0.6" fill-rule="evenodd" clip-rule="evenodd" d="M1186 243.037L1225.08 225L1264.16 243.037L1225.08 261.074L1186 243.037Z" fill="#007F3B"/>
<path opacity="0.8" fill-rule="evenodd" clip-rule="evenodd" d="M1186 243.037V279.111L1225.08 297.148V261.074L1186 243.037Z" fill="#007F3B"/>
<path fill-rule="evenodd" clip-rule="evenodd" d="M1264.16 243.037V279.111L1225.08 297.148V261.074L1264.16 243.037Z" fill="#007F3B"/>
<path opacity="0.6" fill-rule="evenodd" clip-rule="evenodd" d="M1108 243.037L1147.08 225L1186.16 243.037L1147.08 261.074L1108 243.037Z" fill="white" fill-opacity="0.4"/>
<path opacity="0.8" fill-rule="evenodd" clip-rule="evenodd" d="M1108 243.037V279.111L1147.08 297.148V261.074L1108 243.037Z" fill="white" fill-opacity="0.4"/>
<path fill-rule="evenodd" clip-rule="evenodd" d="M1186.16 243.037V279.111L1147.08 297.148V261.074L1186.16 243.037Z" fill="white" fill-opacity="0.4"/>
<path opacity="0.6" fill-rule="evenodd" clip-rule="evenodd" d="M1030 243.037L1069.08 225L1108.16 243.037L1069.08 261.074L1030 243.037Z" fill="white" fill-opacity="0.4"/>
<path opacity="0.8" fill-rule="evenodd" clip-rule="evenodd" d="M1030 243.037V279.111L1069.08 297.148V261.074L1030 243.037Z" fill="white" fill-opacity="0.4"/>
<path fill-rule="evenodd" clip-rule="evenodd" d="M1108.16 243.037V279.111L1069.08 297.148V261.074L1108.16 243.037Z" fill="white" fill-opacity="0.4"/>
<path opacity="0.6" fill-rule="evenodd" clip-rule="evenodd" d="M952 243.037L991.08 225L1030.16 243.037L991.08 261.074L952 243.037Z" fill="white" fill-opacity="0.4"/>
<path opacity="0.8" fill-rule="evenodd" clip-rule="evenodd" d="M952 243.037V279.111L991.08 297.148V261.074L952 243.037Z" fill="white" fill-opacity="0.4"/>
<path fill-rule="evenodd" clip-rule="evenodd" d="M1030.16 243.037V279.111L991.08 297.148V261.074L1030.16 243.037Z" fill="white" fill-opacity="0.4"/>
<path opacity="0.6" fill-rule="evenodd" clip-rule="evenodd" d="M874 243.037L913.08 225L952.16 243.037L913.08 261.074L874 243.037Z" fill="white" fill-opacity="0.4"/>
<path opacity="0.8" fill-rule="evenodd" clip-rule="evenodd" d="M874 243.037V279.111L913.08 297.148V261.074L874 243.037Z" fill="white" fill-opacity="0.4"/>
<path fill-rule="evenodd" clip-rule="evenodd" d="M952.16 243.037V279.111L913.08 297.148V261.074L952.16 243.037Z" fill="white" fill-opacity="0.4"/>
<path opacity="0.6" fill-rule="evenodd" clip-rule="evenodd" d="M796 243.037L835.08 225L874.16 243.037L835.08 261.074L796 243.037Z" fill="white" fill-opacity="0.4"/>
<path opacity="0.8" fill-rule="evenodd" clip-rule="evenodd" d="M796 243.037V279.111L835.08 297.148V261.074L796 243.037Z" fill="white" fill-opacity="0.4"/>
<path fill-rule="evenodd" clip-rule="evenodd" d="M874.16 243.037V279.111L835.08 297.148V261.074L874.16 243.037Z" fill="white" fill-opacity="0.4"/>
<path opacity="0.6" fill-rule="evenodd" clip-rule="evenodd" d="M718 243.037L757.08 225L796.16 243.037L757.08 261.074L718 243.037Z" fill="white" fill-opacity="0.4"/>
<path opacity="0.8" fill-rule="evenodd" clip-rule="evenodd" d="M718 243.037V279.111L757.08 297.148V261.074L718 243.037Z" fill="white" fill-opacity="0.4"/>
<path fill-rule="evenodd" clip-rule="evenodd" d="M796.16 243.037V279.111L757.08 297.148V261.074L796.16 243.037Z" fill="white" fill-opacity="0.4"/>
<path opacity="0.6" fill-rule="evenodd" clip-rule="evenodd" d="M640 243.037L679.08 225L718.16 243.037L679.08 261.074L640 243.037Z" fill="white" fill-opacity="0.4"/>
<path opacity="0.8" fill-rule="evenodd" clip-rule="evenodd" d="M640 243.037V279.111L679.08 297.148V261.074L640 243.037Z" fill="white" fill-opacity="0.4"/>
<path fill-rule="evenodd" clip-rule="evenodd" d="M718.16 243.037V279.111L679.08 297.148V261.074L718.16 243.037Z" fill="white" fill-opacity="0.4"/>
<path opacity="0.6" fill-rule="evenodd" clip-rule="evenodd" d="M562 243.037L601.08 225L640.16 243.037L601.08 261.074L562 243.037Z" fill="white" fill-opacity="0.4"/>
<path opacity="0.8" fill-rule="evenodd" clip-rule="evenodd" d="M562 243.037V279.111L601.08 297.148V261.074L562 243.037Z" fill="white" fill-opacity="0.4"/>
<path fill-rule="evenodd" clip-rule="evenodd" d="M640.16 243.037V279.111L601.08 297.148V261.074L640.16 243.037Z" fill="white" fill-opacity="0.4"/>
<path opacity="0.6" fill-rule="evenodd" clip-rule="evenodd" d="M484 243.037L523.08 225L562.16 243.037L523.08 261.074L484 243.037Z" fill="white" fill-opacity="0.4"/>
<path opacity="0.8" fill-rule="evenodd" clip-rule="evenodd" d="M484 243.037V279.111L523.08 297.148V261.074L484 243.037Z" fill="white" fill-opacity="0.4"/>
<path fill-rule="evenodd" clip-rule="evenodd" d="M562.16 243.037V279.111L523.08 297.148V261.074L562.16 243.037Z" fill="white" fill-opacity="0.4"/>
<path opacity="0.6" fill-rule="evenodd" clip-rule="evenodd" d="M406 243.037L445.08 225L484.16 243.037L445.08 261.074L406 243.037Z" fill="white" fill-opacity="0.4"/>
<path opacity="0.8" fill-rule="evenodd" clip-rule="evenodd" d="M406 243.037V279.111L445.08 297.148V261.074L406 243.037Z" fill="white" fill-opacity="0.4"/>
<path fill-rule="evenodd" clip-rule="evenodd" d="M484.16 243.037V279.111L445.08 297.148V261.074L484.16 243.037Z" fill="white" fill-opacity="0.4"/>
<path opacity="0.6" fill-rule="evenodd" clip-rule="evenodd" d="M328 243.037L367.08 225L406.16 243.037L367.08 261.074L328 243.037Z" fill="white" fill-opacity="0.4"/>
<path opacity="0.8" fill-rule="evenodd" clip-rule="evenodd" d="M328 243.037V279.111L367.08 297.148V261.074L328 243.037Z" fill="white" fill-opacity="0.4"/>
<path fill-rule="evenodd" clip-rule="evenodd" d="M406.16 243.037V279.111L367.08 297.148V261.074L406.16 243.037Z" fill="white" fill-opacity="0.4"/>
<path opacity="0.6" fill-rule="evenodd" clip-rule="evenodd" d="M250 243.037L289.08 225L328.16 243.037L289.08 261.074L250 243.037Z" fill="white" fill-opacity="0.4"/>
<path opacity="0.8" fill-rule="evenodd" clip-rule="evenodd" d="M250 243.037V279.111L289.08 297.148V261.074L250 243.037Z" fill="white" fill-opacity="0.4"/>
<path fill-rule="evenodd" clip-rule="evenodd" d="M328.16 243.037V279.111L289.08 297.148V261.074L328.16 243.037Z" fill="white" fill-opacity="0.4"/>
<path opacity="0.6" fill-rule="evenodd" clip-rule="evenodd" d="M172 243.037L211.08 225L250.16 243.037L211.08 261.074L172 243.037Z" fill="white" fill-opacity="0.4"/>
<path opacity="0.8" fill-rule="evenodd" clip-rule="evenodd" d="M172 243.037V279.111L211.08 297.148V261.074L172 243.037Z" fill="white" fill-opacity="0.4"/>
<path fill-rule="evenodd" clip-rule="evenodd" d="M250.16 243.037V279.111L211.08 297.148V261.074L250.16 243.037Z" fill="white" fill-opacity="0.4"/>
<path opacity="0.6" fill-rule="evenodd" clip-rule="evenodd" d="M94 243.037L133.08 225L172.16 243.037L133.08 261.074L94 243.037Z" fill="white" fill-opacity="0.4"/>
<path opacity="0.8" fill-rule="evenodd" clip-rule="evenodd" d="M94 243.037V279.111L133.08 297.148V261.074L94 243.037Z" fill="white" fill-opacity="0.4"/>
<path fill-rule="evenodd" clip-rule="evenodd" d="M172.16 243.037V279.111L133.08 297.148V261.074L172.16 243.037Z" fill="white" fill-opacity="0.4"/>
<path opacity="0.6" fill-rule="evenodd" clip-rule="evenodd" d="M16 243.037L55.08 225L94.16 243.037L55.08 261.074L16 243.037Z" fill="#7C2855"/>
<path opacity="0.8" fill-rule="evenodd" clip-rule="evenodd" d="M16 243.037V279.111L55.08 297.148V261.074L16 243.037Z" fill="#7C2855"/>
<path fill-rule="evenodd" clip-rule="evenodd" d="M94.16 243.037V279.111L55.08 297.148V261.074L94.16 243.037Z" fill="#7C2855"/>
<path opacity="0.6" fill-rule="evenodd" clip-rule="evenodd" d="M-62 243.037L-22.92 225L16.16 243.037L-22.92 261.074L-62 243.037Z" fill="white" fill-opacity="0.4"/>
<path fill-rule="evenodd" clip-rule="evenodd" d="M16.16 243.037V279.111L-22.92 297.148V261.074L16.16 243.037Z" fill="white" fill-opacity="0.4"/>
<path opacity="0.6" fill-rule="evenodd" clip-rule="evenodd" d="M1381 189.037L1420.08 171L1459.16 189.037L1420.08 207.074L1381 189.037Z" fill="white" fill-opacity="0.4"/>
<path opacity="0.8" fill-rule="evenodd" clip-rule="evenodd" d="M1381 189.037V225.111L1420.08 243.148V207.074L1381 189.037Z" fill="white" fill-opacity="0.4"/>
<path fill-rule="evenodd" clip-rule="evenodd" d="M1459.16 189.037V225.111L1420.08 243.148V207.074L1459.16 189.037Z" fill="white" fill-opacity="0.4"/>
<path opacity="0.6" fill-rule="evenodd" clip-rule="evenodd" d="M1303 189.037L1342.08 171L1381.16 189.037L1342.08 207.074L1303 189.037Z" fill="#007F3B"/>
<path opacity="0.8" fill-rule="evenodd" clip-rule="evenodd" d="M1303 189.037V225.111L1342.08 243.148V207.074L1303 189.037Z" fill="#007F3B"/>
<path fill-rule="evenodd" clip-rule="evenodd" d="M1381.16 189.037V225.111L1342.08 243.148V207.074L1381.16 189.037Z" fill="#007F3B"/>
<path opacity="0.6" fill-rule="evenodd" clip-rule="evenodd" d="M1225 189.037L1264.08 171L1303.16 189.037L1264.08 207.074L1225 189.037Z" fill="white" fill-opacity="0.4"/>
<path opacity="0.8" fill-rule="evenodd" clip-rule="evenodd" d="M1225 189.037V225.111L1264.08 243.148V207.074L1225 189.037Z" fill="white" fill-opacity="0.4"/>
<path fill-rule="evenodd" clip-rule="evenodd" d="M1303.16 189.037V225.111L1264.08 243.148V207.074L1303.16 189.037Z" fill="white" fill-opacity="0.4"/>
<path opacity="0.6" fill-rule="evenodd" clip-rule="evenodd" d="M1147 189.037L1186.08 171L1225.16 189.037L1186.08 207.074L1147 189.037Z" fill="#005EB8"/>
<path opacity="0.8" fill-rule="evenodd" clip-rule="evenodd" d="M1147 189.037V225.111L1186.08 243.148V207.074L1147 189.037Z" fill="#005EB8"/>
<path fill-rule="evenodd" clip-rule="evenodd" d="M1225.16 189.037V225.111L1186.08 243.148V207.074L1225.16 189.037Z" fill="#005EB8"/>
<path opacity="0.6" fill-rule="evenodd" clip-rule="evenodd" d="M1069 189.037L1108.08 171L1147.16 189.037L1108.08 207.074L1069 189.037Z" fill="white" fill-opacity="0.4"/>
<path opacity="0.8" fill-rule="evenodd" clip-rule="evenodd" d="M1069 189.037V225.111L1108.08 243.148V207.074L1069 189.037Z" fill="white" fill-opacity="0.4"/>
<path fill-rule="evenodd" clip-rule="evenodd" d="M1147.16 189.037V225.111L1108.08 243.148V207.074L1147.16 189.037Z" fill="white" fill-opacity="0.4"/>
<path opacity="0.6" fill-rule="evenodd" clip-rule="evenodd" d="M991 189.037L1030.08 171L1069.16 189.037L1030.08 207.074L991 189.037Z" fill="white" fill-opacity="0.4"/>
<path opacity="0.8" fill-rule="evenodd" clip-rule="evenodd" d="M991 189.037V225.111L1030.08 243.148V207.074L991 189.037Z" fill="white" fill-opacity="0.4"/>
<path fill-rule="evenodd" clip-rule="evenodd" d="M1069.16 189.037V225.111L1030.08 243.148V207.074L1069.16 189.037Z" fill="white" fill-opacity="0.4"/>
<path opacity="0.6" fill-rule="evenodd" clip-rule="evenodd" d="M913 189.037L952.08 171L991.16 189.037L952.08 207.074L913 189.037Z" fill="white" fill-opacity="0.4"/>
<path opacity="0.8" fill-rule="evenodd" clip-rule="evenodd" d="M913 189.037V225.111L952.08 243.148V207.074L913 189.037Z" fill="white" fill-opacity="0.4"/>
<path fill-rule="evenodd" clip-rule="evenodd" d="M991.16 189.037V225.111L952.08 243.148V207.074L991.16 189.037Z" fill="white" fill-opacity="0.4"/>
<path opacity="0.6" fill-rule="evenodd" clip-rule="evenodd" d="M835 189.037L874.08 171L913.16 189.037L874.08 207.074L835 189.037Z" fill="#005EB8"/>
<path opacity="0.8" fill-rule="evenodd" clip-rule="evenodd" d="M835 189.037V225.111L874.08 243.148V207.074L835 189.037Z" fill="#005EB8"/>
<path fill-rule="evenodd" clip-rule="evenodd" d="M913.16 189.037V225.111L874.08 243.148V207.074L913.16 189.037Z" fill="#005EB8"/>
<path opacity="0.6" fill-rule="evenodd" clip-rule="evenodd" d="M757 189.037L796.08 171L835.16 189.037L796.08 207.074L757 189.037Z" fill="white" fill-opacity="0.4"/>
<path opacity="0.8" fill-rule="evenodd" clip-rule="evenodd" d="M757 189.037V225.111L796.08 243.148V207.074L757 189.037Z" fill="white" fill-opacity="0.4"/>
<path fill-rule="evenodd" clip-rule="evenodd" d="M835.16 189.037V225.111L796.08 243.148V207.074L835.16 189.037Z" fill="white" fill-opacity="0.4"/>
<path opacity="0.6" fill-rule="evenodd" clip-rule="evenodd" d="M679 189.037L718.08 171L757.16 189.037L718.08 207.074L679 189.037Z" fill="white" fill-opacity="0.4"/>
<path opacity="0.8" fill-rule="evenodd" clip-rule="evenodd" d="M679 189.037V225.111L718.08 243.148V207.074L679 189.037Z" fill="white" fill-opacity="0.4"/>
<path fill-rule="evenodd" clip-rule="evenodd" d="M757.16 189.037V225.111L718.08 243.148V207.074L757.16 189.037Z" fill="white" fill-opacity="0.4"/>
<path opacity="0.6" fill-rule="evenodd" clip-rule="evenodd" d="M601 189.037L640.08 171L679.16 189.037L640.08 207.074L601 189.037Z" fill="white" fill-opacity="0.4"/>
<path opacity="0.8" fill-rule="evenodd" clip-rule="evenodd" d="M601 189.037V225.111L640.08 243.148V207.074L601 189.037Z" fill="white" fill-opacity="0.4"/>
<path fill-rule="evenodd" clip-rule="evenodd" d="M679.16 189.037V225.111L640.08 243.148V207.074L679.16 189.037Z" fill="white" fill-opacity="0.4"/>
<path opacity="0.6" fill-rule="evenodd" clip-rule="evenodd" d="M523 189.037L562.08 171L601.16 189.037L562.08 207.074L523 189.037Z" fill="white" fill-opacity="0.4"/>
<path opacity="0.8" fill-rule="evenodd" clip-rule="evenodd" d="M523 189.037V225.111L562.08 243.148V207.074L523 189.037Z" fill="white" fill-opacity="0.4"/>
<path fill-rule="evenodd" clip-rule="evenodd" d="M601.16 189.037V225.111L562.08 243.148V207.074L601.16 189.037Z" fill="white" fill-opacity="0.4"/>
<path opacity="0.6" fill-rule="evenodd" clip-rule="evenodd" d="M445 189.037L484.08 171L523.16 189.037L484.08 207.074L445 189.037Z" fill="white" fill-opacity="0.4"/>
<path opacity="0.8" fill-rule="evenodd" clip-rule="evenodd" d="M445 189.037V225.111L484.08 243.148V207.074L445 189.037Z" fill="white" fill-opacity="0.4"/>
<path fill-rule="evenodd" clip-rule="evenodd" d="M523.16 189.037V225.111L484.08 243.148V207.074L523.16 189.037Z" fill="white" fill-opacity="0.4"/>
<path opacity="0.6" fill-rule="evenodd" clip-rule="evenodd" d="M367 189.037L406.08 171L445.16 189.037L406.08 207.074L367 189.037Z" fill="white" fill-opacity="0.4"/>
<path opacity="0.8" fill-rule="evenodd" clip-rule="evenodd" d="M367 189.037V225.111L406.08 243.148V207.074L367 189.037Z" fill="white" fill-opacity="0.4"/>
<path fill-rule="evenodd" clip-rule="evenodd" d="M445.16 189.037V225.111L406.08 243.148V207.074L445.16 189.037Z" fill="white" fill-opacity="0.4"/>
<path opacity="0.6" fill-rule="evenodd" clip-rule="evenodd" d="M289 189.037L328.08 171L367.16 189.037L328.08 207.074L289 189.037Z" fill="white" fill-opacity="0.4"/>
<path opacity="0.8" fill-rule="evenodd" clip-rule="evenodd" d="M289 189.037V225.111L328.08 243.148V207.074L289 189.037Z" fill="white" fill-opacity="0.4"/>
<path fill-rule="evenodd" clip-rule="evenodd" d="M367.16 189.037V225.111L328.08 243.148V207.074L367.16 189.037Z" fill="white" fill-opacity="0.4"/>
<path opacity="0.6" fill-rule="evenodd" clip-rule="evenodd" d="M211 189.037L250.08 171L289.16 189.037L250.08 207.074L211 189.037Z" fill="white" fill-opacity="0.4"/>
<path opacity="0.8" fill-rule="evenodd" clip-rule="evenodd" d="M211 189.037V225.111L250.08 243.148V207.074L211 189.037Z" fill="white" fill-opacity="0.4"/>
<path fill-rule="evenodd" clip-rule="evenodd" d="M289.16 189.037V225.111L250.08 243.148V207.074L289.16 189.037Z" fill="white" fill-opacity="0.4"/>
<path opacity="0.6" fill-rule="evenodd" clip-rule="evenodd" d="M133 189.037L172.08 171L211.16 189.037L172.08 207.074L133 189.037Z" fill="#005EB8"/>
<path opacity="0.8" fill-rule="evenodd" clip-rule="evenodd" d="M133 189.037V225.111L172.08 243.148V207.074L133 189.037Z" fill="#005EB8"/>
<path fill-rule="evenodd" clip-rule="evenodd" d="M211.16 189.037V225.111L172.08 243.148V207.074L211.16 189.037Z" fill="#005EB8"/>
<path opacity="0.6" fill-rule="evenodd" clip-rule="evenodd" d="M55 189.037L94.08 171L133.16 189.037L94.08 207.074L55 189.037Z" fill="white" fill-opacity="0.4"/>
<path opacity="0.8" fill-rule="evenodd" clip-rule="evenodd" d="M55 189.037V225.111L94.08 243.148V207.074L55 189.037Z" fill="white" fill-opacity="0.4"/>
<path fill-rule="evenodd" clip-rule="evenodd" d="M133.16 189.037V225.111L94.08 243.148V207.074L133.16 189.037Z" fill="white" fill-opacity="0.4"/>
<path opacity="0.6" fill-rule="evenodd" clip-rule="evenodd" d="M-23 189.037L16.08 171L55.16 189.037L16.08 207.074L-23 189.037Z" fill="#007F3B"/>
<path opacity="0.8" fill-rule="evenodd" clip-rule="evenodd" d="M-23 189.037V225.111L16.08 243.148V207.074L-23 189.037Z" fill="#007F3B"/>
<path fill-rule="evenodd" clip-rule="evenodd" d="M55.16 189.037V225.111L16.08 243.148V207.074L55.16 189.037Z" fill="#007F3B"/>
<path opacity="0.6" fill-rule="evenodd" clip-rule="evenodd" d="M1420 135.037L1459.08 117L1498.16 135.037L1459.08 153.074L1420 135.037Z" fill="white" fill-opacity="0.4"/>
<path opacity="0.8" fill-rule="evenodd" clip-rule="evenodd" d="M1420 135.037V171.111L1459.08 189.148V153.074L1420 135.037Z" fill="white" fill-opacity="0.4"/>
<path opacity="0.6" fill-rule="evenodd" clip-rule="evenodd" d="M1342 135.037L1381.08 117L1420.16 135.037L1381.08 153.074L1342 135.037Z" fill="#005EB8"/>
<path opacity="0.8" fill-rule="evenodd" clip-rule="evenodd" d="M1342 135.037V171.111L1381.08 189.148V153.074L1342 135.037Z" fill="#005EB8"/>
<path fill-rule="evenodd" clip-rule="evenodd" d="M1420.16 135.037V171.111L1381.08 189.148V153.074L1420.16 135.037Z" fill="#005EB8"/>
<path opacity="0.6" fill-rule="evenodd" clip-rule="evenodd" d="M1264 135.037L1303.08 117L1342.16 135.037L1303.08 153.074L1264 135.037Z" fill="white" fill-opacity="0.4"/>
<path opacity="0.8" fill-rule="evenodd" clip-rule="evenodd" d="M1264 135.037V171.111L1303.08 189.148V153.074L1264 135.037Z" fill="white" fill-opacity="0.4"/>
<path fill-rule="evenodd" clip-rule="evenodd" d="M1342.16 135.037V171.111L1303.08 189.148V153.074L1342.16 135.037Z" fill="white" fill-opacity="0.4"/>
<path opacity="0.6" fill-rule="evenodd" clip-rule="evenodd" d="M1186 135.037L1225.08 117L1264.16 135.037L1225.08 153.074L1186 135.037Z" fill="#330072"/>
<path opacity="0.8" fill-rule="evenodd" clip-rule="evenodd" d="M1186 135.037V171.111L1225.08 189.148V153.074L1186 135.037Z" fill="#330072"/>
<path fill-rule="evenodd" clip-rule="evenodd" d="M1264.16 135.037V171.111L1225.08 189.148V153.074L1264.16 135.037Z" fill="#330072"/>
<path opacity="0.6" fill-rule="evenodd" clip-rule="evenodd" d="M1108 135.037L1147.08 117L1186.16 135.037L1147.08 153.074L1108 135.037Z" fill="white" fill-opacity="0.4"/>
<path opacity="0.8" fill-rule="evenodd" clip-rule="evenodd" d="M1108 135.037V171.111L1147.08 189.148V153.074L1108 135.037Z" fill="white" fill-opacity="0.4"/>
<path fill-rule="evenodd" clip-rule="evenodd" d="M1186.16 135.037V171.111L1147.08 189.148V153.074L1186.16 135.037Z" fill="white" fill-opacity="0.4"/>
<path opacity="0.6" fill-rule="evenodd" clip-rule="evenodd" d="M1030 135.037L1069.08 117L1108.16 135.037L1069.08 153.074L1030 135.037Z" fill="white" fill-opacity="0.4"/>
<path opacity="0.8" fill-rule="evenodd" clip-rule="evenodd" d="M1030 135.037V171.111L1069.08 189.148V153.074L1030 135.037Z" fill="white" fill-opacity="0.4"/>
<path fill-rule="evenodd" clip-rule="evenodd" d="M1108.16 135.037V171.111L1069.08 189.148V153.074L1108.16 135.037Z" fill="white" fill-opacity="0.4"/>
<path opacity="0.6" fill-rule="evenodd" clip-rule="evenodd" d="M952 135.037L991.08 117L1030.16 135.037L991.08 153.074L952 135.037Z" fill="white" fill-opacity="0.4"/>
<path opacity="0.8" fill-rule="evenodd" clip-rule="evenodd" d="M952 135.037V171.111L991.08 189.148V153.074L952 135.037Z" fill="white" fill-opacity="0.4"/>
<path fill-rule="evenodd" clip-rule="evenodd" d="M1030.16 135.037V171.111L991.08 189.148V153.074L1030.16 135.037Z" fill="white" fill-opacity="0.4"/>
<path opacity="0.6" fill-rule="evenodd" clip-rule="evenodd" d="M874 135.037L913.08 117L952.16 135.037L913.08 153.074L874 135.037Z" fill="white" fill-opacity="0.4"/>
<path opacity="0.8" fill-rule="evenodd" clip-rule="evenodd" d="M874 135.037V171.111L913.08 189.148V153.074L874 135.037Z" fill="white" fill-opacity="0.4"/>
<path fill-rule="evenodd" clip-rule="evenodd" d="M952.16 135.037V171.111L913.08 189.148V153.074L952.16 135.037Z" fill="white" fill-opacity="0.4"/>
<path opacity="0.6" fill-rule="evenodd" clip-rule="evenodd" d="M796 135.037L835.08 117L874.16 135.037L835.08 153.074L796 135.037Z" fill="white" fill-opacity="0.4"/>
<path opacity="0.8" fill-rule="evenodd" clip-rule="evenodd" d="M796 135.037V171.111L835.08 189.148V153.074L796 135.037Z" fill="white" fill-opacity="0.4"/>
<path fill-rule="evenodd" clip-rule="evenodd" d="M874.16 135.037V171.111L835.08 189.148V153.074L874.16 135.037Z" fill="white" fill-opacity="0.4"/>
<path opacity="0.6" fill-rule="evenodd" clip-rule="evenodd" d="M718 135.037L757.08 117L796.16 135.037L757.08 153.074L718 135.037Z" fill="white" fill-opacity="0.4"/>
<path opacity="0.8" fill-rule="evenodd" clip-rule="evenodd" d="M718 135.037V171.111L757.08 189.148V153.074L718 135.037Z" fill="white" fill-opacity="0.4"/>
<path fill-rule="evenodd" clip-rule="evenodd" d="M796.16 135.037V171.111L757.08 189.148V153.074L796.16 135.037Z" fill="white" fill-opacity="0.4"/>
<path opacity="0.6" fill-rule="evenodd" clip-rule="evenodd" d="M640 135.037L679.08 117L718.16 135.037L679.08 153.074L640 135.037Z" fill="white" fill-opacity="0.4"/>
<path opacity="0.8" fill-rule="evenodd" clip-rule="evenodd" d="M640 135.037V171.111L679.08 189.148V153.074L640 135.037Z" fill="white" fill-opacity="0.4"/>
<path fill-rule="evenodd" clip-rule="evenodd" d="M718.16 135.037V171.111L679.08 189.148V153.074L718.16 135.037Z" fill="white" fill-opacity="0.4"/>
<path opacity="0.6" fill-rule="evenodd" clip-rule="evenodd" d="M562 135.037L601.08 117L640.16 135.037L601.08 153.074L562 135.037Z" fill="white" fill-opacity="0.4"/>
<path opacity="0.8" fill-rule="evenodd" clip-rule="evenodd" d="M562 135.037V171.111L601.08 189.148V153.074L562 135.037Z" fill="white" fill-opacity="0.4"/>
<path fill-rule="evenodd" clip-rule="evenodd" d="M640.16 135.037V171.111L601.08 189.148V153.074L640.16 135.037Z" fill="white" fill-opacity="0.4"/>
<path opacity="0.6" fill-rule="evenodd" clip-rule="evenodd" d="M484 135.037L523.08 117L562.16 135.037L523.08 153.074L484 135.037Z" fill="white" fill-opacity="0.4"/>
<path opacity="0.8" fill-rule="evenodd" clip-rule="evenodd" d="M484 135.037V171.111L523.08 189.148V153.074L484 135.037Z" fill="white" fill-opacity="0.4"/>
<path fill-rule="evenodd" clip-rule="evenodd" d="M562.16 135.037V171.111L523.08 189.148V153.074L562.16 135.037Z" fill="white" fill-opacity="0.4"/>
<path opacity="0.6" fill-rule="evenodd" clip-rule="evenodd" d="M406 135.037L445.08 117L484.16 135.037L445.08 153.074L406 135.037Z" fill="white" fill-opacity="0.4"/>
<path opacity="0.8" fill-rule="evenodd" clip-rule="evenodd" d="M406 135.037V171.111L445.08 189.148V153.074L406 135.037Z" fill="white" fill-opacity="0.4"/>
<path fill-rule="evenodd" clip-rule="evenodd" d="M484.16 135.037V171.111L445.08 189.148V153.074L484.16 135.037Z" fill="white" fill-opacity="0.4"/>
<path opacity="0.6" fill-rule="evenodd" clip-rule="evenodd" d="M328 135.037L367.08 117L406.16 135.037L367.08 153.074L328 135.037Z" fill="white" fill-opacity="0.4"/>
<path opacity="0.8" fill-rule="evenodd" clip-rule="evenodd" d="M328 135.037V171.111L367.08 189.148V153.074L328 135.037Z" fill="white" fill-opacity="0.4"/>
<path fill-rule="evenodd" clip-rule="evenodd" d="M406.16 135.037V171.111L367.08 189.148V153.074L406.16 135.037Z" fill="white" fill-opacity="0.4"/>
<path opacity="0.6" fill-rule="evenodd" clip-rule="evenodd" d="M250 135.037L289.08 117L328.16 135.037L289.08 153.074L250 135.037Z" fill="#7C2855"/>
<path opacity="0.8" fill-rule="evenodd" clip-rule="evenodd" d="M250 135.037V171.111L289.08 189.148V153.074L250 135.037Z" fill="#7C2855"/>
<path fill-rule="evenodd" clip-rule="evenodd" d="M328.16 135.037V171.111L289.08 189.148V153.074L328.16 135.037Z" fill="#7C2855"/>
<path opacity="0.6" fill-rule="evenodd" clip-rule="evenodd" d="M172 135.037L211.08 117L250.16 135.037L211.08 153.074L172 135.037Z" fill="white" fill-opacity="0.4"/>
<path opacity="0.8" fill-rule="evenodd" clip-rule="evenodd" d="M172 135.037V171.111L211.08 189.148V153.074L172 135.037Z" fill="white" fill-opacity="0.4"/>
<path fill-rule="evenodd" clip-rule="evenodd" d="M250.16 135.037V171.111L211.08 189.148V153.074L250.16 135.037Z" fill="white" fill-opacity="0.4"/>
<path opacity="0.6" fill-rule="evenodd" clip-rule="evenodd" d="M94 135.037L133.08 117L172.16 135.037L133.08 153.074L94 135.037Z" fill="#005EB8"/>
<path opacity="0.8" fill-rule="evenodd" clip-rule="evenodd" d="M94 135.037V171.111L133.08 189.148V153.074L94 135.037Z" fill="#005EB8"/>
<path fill-rule="evenodd" clip-rule="evenodd" d="M172.16 135.037V171.111L133.08 189.148V153.074L172.16 135.037Z" fill="#005EB8"/>
<path opacity="0.6" fill-rule="evenodd" clip-rule="evenodd" d="M16 135.037L55.08 117L94.16 135.037L55.08 153.074L16 135.037Z" fill="white" fill-opacity="0.4"/>
<path opacity="0.8" fill-rule="evenodd" clip-rule="evenodd" d="M16 135.037V171.111L55.08 189.148V153.074L16 135.037Z" fill="white" fill-opacity="0.4"/>
<path fill-rule="evenodd" clip-rule="evenodd" d="M94.16 135.037V171.111L55.08 189.148V153.074L94.16 135.037Z" fill="white" fill-opacity="0.4"/>
<path opacity="0.6" fill-rule="evenodd" clip-rule="evenodd" d="M-62 135.037L-22.92 117L16.16 135.037L-22.92 153.074L-62 135.037Z" fill="#005EB8"/>
<path fill-rule="evenodd" clip-rule="evenodd" d="M16.16 135.037V171.111L-22.92 189.148V153.074L16.16 135.037Z" fill="#005EB8"/>
<path opacity="0.6" fill-rule="evenodd" clip-rule="evenodd" d="M1381 81.0369L1420.08 63L1459.16 81.0369L1420.08 99.0738L1381 81.0369Z" fill="#005EB8"/>
<path opacity="0.8" fill-rule="evenodd" clip-rule="evenodd" d="M1381 81.0369V117.111L1420.08 135.148V99.0738L1381 81.0369Z" fill="#005EB8"/>
<path fill-rule="evenodd" clip-rule="evenodd" d="M1459.16 81.0369V117.111L1420.08 135.148V99.0738L1459.16 81.0369Z" fill="#005EB8"/>
<path opacity="0.6" fill-rule="evenodd" clip-rule="evenodd" d="M1303 81.0369L1342.08 63L1381.16 81.0369L1342.08 99.0738L1303 81.0369Z" fill="white" fill-opacity="0.4"/>
<path opacity="0.8" fill-rule="evenodd" clip-rule="evenodd" d="M1303 81.0369V117.111L1342.08 135.148V99.0738L1303 81.0369Z" fill="white" fill-opacity="0.4"/>
<path fill-rule="evenodd" clip-rule="evenodd" d="M1381.16 81.0369V117.111L1342.08 135.148V99.0738L1381.16 81.0369Z" fill="white" fill-opacity="0.4"/>
<path opacity="0.6" fill-rule="evenodd" clip-rule="evenodd" d="M1225 81.0369L1264.08 63L1303.16 81.0369L1264.08 99.0738L1225 81.0369Z" fill="white" fill-opacity="0.4"/>
<path opacity="0.8" fill-rule="evenodd" clip-rule="evenodd" d="M1225 81.0369V117.111L1264.08 135.148V99.0738L1225 81.0369Z" fill="white" fill-opacity="0.4"/>
<path fill-rule="evenodd" clip-rule="evenodd" d="M1303.16 81.0369V117.111L1264.08 135.148V99.0738L1303.16 81.0369Z" fill="white" fill-opacity="0.4"/>
<path opacity="0.6" fill-rule="evenodd" clip-rule="evenodd" d="M1147 81.0369L1186.08 63L1225.16 81.0369L1186.08 99.0738L1147 81.0369Z" fill="#007F3B"/>
<path opacity="0.8" fill-rule="evenodd" clip-rule="evenodd" d="M1147 81.0369V117.111L1186.08 135.148V99.0738L1147 81.0369Z" fill="#007F3B"/>
<path fill-rule="evenodd" clip-rule="evenodd" d="M1225.16 81.0369V117.111L1186.08 135.148V99.0738L1225.16 81.0369Z" fill="#007F3B"/>
<path opacity="0.6" fill-rule="evenodd" clip-rule="evenodd" d="M1069 81.0369L1108.08 63L1147.16 81.0369L1108.08 99.0738L1069 81.0369Z" fill="#005EB8"/>
<path opacity="0.8" fill-rule="evenodd" clip-rule="evenodd" d="M1069 81.0369V117.111L1108.08 135.148V99.0738L1069 81.0369Z" fill="#005EB8"/>
<path fill-rule="evenodd" clip-rule="evenodd" d="M1147.16 81.0369V117.111L1108.08 135.148V99.0738L1147.16 81.0369Z" fill="#005EB8"/>
<path opacity="0.6" fill-rule="evenodd" clip-rule="evenodd" d="M991 81.0369L1030.08 63L1069.16 81.0369L1030.08 99.0738L991 81.0369Z" fill="white" fill-opacity="0.4"/>
<path opacity="0.8" fill-rule="evenodd" clip-rule="evenodd" d="M991 81.0369V117.111L1030.08 135.148V99.0738L991 81.0369Z" fill="white" fill-opacity="0.4"/>
<path fill-rule="evenodd" clip-rule="evenodd" d="M1069.16 81.0369V117.111L1030.08 135.148V99.0738L1069.16 81.0369Z" fill="white" fill-opacity="0.4"/>
<path opacity="0.6" fill-rule="evenodd" clip-rule="evenodd" d="M913 81.0369L952.08 63L991.16 81.0369L952.08 99.0738L913 81.0369Z" fill="white" fill-opacity="0.4"/>
<path opacity="0.8" fill-rule="evenodd" clip-rule="evenodd" d="M913 81.0369V117.111L952.08 135.148V99.0738L913 81.0369Z" fill="white" fill-opacity="0.4"/>
<path fill-rule="evenodd" clip-rule="evenodd" d="M991.16 81.0369V117.111L952.08 135.148V99.0738L991.16 81.0369Z" fill="white" fill-opacity="0.4"/>
<path opacity="0.6" fill-rule="evenodd" clip-rule="evenodd" d="M835 81.0369L874.08 63L913.16 81.0369L874.08 99.0738L835 81.0369Z" fill="white" fill-opacity="0.4"/>
<path opacity="0.8" fill-rule="evenodd" clip-rule="evenodd" d="M835 81.0369V117.111L874.08 135.148V99.0738L835 81.0369Z" fill="white" fill-opacity="0.4"/>
<path fill-rule="evenodd" clip-rule="evenodd" d="M913.16 81.0369V117.111L874.08 135.148V99.0738L913.16 81.0369Z" fill="white" fill-opacity="0.4"/>
<path opacity="0.6" fill-rule="evenodd" clip-rule="evenodd" d="M757 81.0369L796.08 63L835.16 81.0369L796.08 99.0738L757 81.0369Z" fill="#7C2855"/>
<path opacity="0.8" fill-rule="evenodd" clip-rule="evenodd" d="M757 81.0369V117.111L796.08 135.148V99.0738L757 81.0369Z" fill="#7C2855"/>
<path fill-rule="evenodd" clip-rule="evenodd" d="M835.16 81.0369V117.111L796.08 135.148V99.0738L835.16 81.0369Z" fill="#7C2855"/>
<path opacity="0.6" fill-rule="evenodd" clip-rule="evenodd" d="M679 81.0369L718.08 63L757.16 81.0369L718.08 99.0738L679 81.0369Z" fill="white" fill-opacity="0.4"/>
<path opacity="0.8" fill-rule="evenodd" clip-rule="evenodd" d="M679 81.0369V117.111L718.08 135.148V99.0738L679 81.0369Z" fill="white" fill-opacity="0.4"/>
<path fill-rule="evenodd" clip-rule="evenodd" d="M757.16 81.0369V117.111L718.08 135.148V99.0738L757.16 81.0369Z" fill="white" fill-opacity="0.4"/>
<path opacity="0.6" fill-rule="evenodd" clip-rule="evenodd" d="M601 81.0369L640.08 63L679.16 81.0369L640.08 99.0738L601 81.0369Z" fill="white" fill-opacity="0.4"/>
<path opacity="0.8" fill-rule="evenodd" clip-rule="evenodd" d="M601 81.0369V117.111L640.08 135.148V99.0738L601 81.0369Z" fill="white" fill-opacity="0.4"/>
<path fill-rule="evenodd" clip-rule="evenodd" d="M679.16 81.0369V117.111L640.08 135.148V99.0738L679.16 81.0369Z" fill="white" fill-opacity="0.4"/>
<path opacity="0.6" fill-rule="evenodd" clip-rule="evenodd" d="M523 81.0369L562.08 63L601.16 81.0369L562.08 99.0738L523 81.0369Z" fill="white" fill-opacity="0.4"/>
<path opacity="0.8" fill-rule="evenodd" clip-rule="evenodd" d="M523 81.0369V117.111L562.08 135.148V99.0738L523 81.0369Z" fill="white" fill-opacity="0.4"/>
<path fill-rule="evenodd" clip-rule="evenodd" d="M601.16 81.0369V117.111L562.08 135.148V99.0738L601.16 81.0369Z" fill="white" fill-opacity="0.4"/>
<path opacity="0.6" fill-rule="evenodd" clip-rule="evenodd" d="M445 81.0369L484.08 63L523.16 81.0369L484.08 99.0738L445 81.0369Z" fill="white" fill-opacity="0.4"/>
<path opacity="0.8" fill-rule="evenodd" clip-rule="evenodd" d="M445 81.0369V117.111L484.08 135.148V99.0738L445 81.0369Z" fill="white" fill-opacity="0.4"/>
<path fill-rule="evenodd" clip-rule="evenodd" d="M523.16 81.0369V117.111L484.08 135.148V99.0738L523.16 81.0369Z" fill="white" fill-opacity="0.4"/>
<path opacity="0.6" fill-rule="evenodd" clip-rule="evenodd" d="M367 81.0369L406.08 63L445.16 81.0369L406.08 99.0738L367 81.0369Z" fill="#005EB8"/>
<path opacity="0.8" fill-rule="evenodd" clip-rule="evenodd" d="M367 81.0369V117.111L406.08 135.148V99.0738L367 81.0369Z" fill="#005EB8"/>
<path fill-rule="evenodd" clip-rule="evenodd" d="M445.16 81.0369V117.111L406.08 135.148V99.0738L445.16 81.0369Z" fill="#005EB8"/>
<path opacity="0.6" fill-rule="evenodd" clip-rule="evenodd" d="M289 81.0369L328.08 63L367.16 81.0369L328.08 99.0738L289 81.0369Z" fill="white" fill-opacity="0.4"/>
<path opacity="0.8" fill-rule="evenodd" clip-rule="evenodd" d="M289 81.0369V117.111L328.08 135.148V99.0738L289 81.0369Z" fill="white" fill-opacity="0.4"/>
<path fill-rule="evenodd" clip-rule="evenodd" d="M367.16 81.0369V117.111L328.08 135.148V99.0738L367.16 81.0369Z" fill="white" fill-opacity="0.4"/>
<path opacity="0.6" fill-rule="evenodd" clip-rule="evenodd" d="M211 81.0369L250.08 63L289.16 81.0369L250.08 99.0738L211 81.0369Z" fill="white" fill-opacity="0.4"/>
<path opacity="0.8" fill-rule="evenodd" clip-rule="evenodd" d="M211 81.0369V117.111L250.08 135.148V99.0738L211 81.0369Z" fill="white" fill-opacity="0.4"/>
<path fill-rule="evenodd" clip-rule="evenodd" d="M289.16 81.0369V117.111L250.08 135.148V99.0738L289.16 81.0369Z" fill="white" fill-opacity="0.4"/>
<path opacity="0.6" fill-rule="evenodd" clip-rule="evenodd" d="M133 81.0369L172.08 63L211.16 81.0369L172.08 99.0738L133 81.0369Z" fill="#330072"/>
<path opacity="0.8" fill-rule="evenodd" clip-rule="evenodd" d="M133 81.0369V117.111L172.08 135.148V99.0738L133 81.0369Z" fill="#330072"/>
<path fill-rule="evenodd" clip-rule="evenodd" d="M211.16 81.0369V117.111L172.08 135.148V99.0738L211.16 81.0369Z" fill="#330072"/>
<path opacity="0.6" fill-rule="evenodd" clip-rule="evenodd" d="M55 81.0369L94.08 63L133.16 81.0369L94.08 99.0738L55 81.0369Z" fill="white" fill-opacity="0.4"/>
<path opacity="0.8" fill-rule="evenodd" clip-rule="evenodd" d="M55 81.0369V117.111L94.08 135.148V99.0738L55 81.0369Z" fill="white" fill-opacity="0.4"/>
<path fill-rule="evenodd" clip-rule="evenodd" d="M133.16 81.0369V117.111L94.08 135.148V99.0738L133.16 81.0369Z" fill="white" fill-opacity="0.4"/>
<path opacity="0.6" fill-rule="evenodd" clip-rule="evenodd" d="M-23 81.0369L16.08 63L55.16 81.0369L16.08 99.0738L-23 81.0369Z" fill="#7C2855"/>
<path opacity="0.8" fill-rule="evenodd" clip-rule="evenodd" d="M-23 81.0369V117.111L16.08 135.148V99.0738L-23 81.0369Z" fill="#7C2855"/>
<path fill-rule="evenodd" clip-rule="evenodd" d="M55.16 81.0369V117.111L16.08 135.148V99.0738L55.16 81.0369Z" fill="#7C2855"/>
<path opacity="0.6" fill-rule="evenodd" clip-rule="evenodd" d="M1420 27.0369L1459.08 9L1498.16 27.0369L1459.08 45.0738L1420 27.0369Z" fill="white" fill-opacity="0.4"/>
<path opacity="0.8" fill-rule="evenodd" clip-rule="evenodd" d="M1420 27.0369V63.1108L1459.08 81.1477V45.0738L1420 27.0369Z" fill="white" fill-opacity="0.4"/>
<path opacity="0.6" fill-rule="evenodd" clip-rule="evenodd" d="M1342 27.0369L1381.08 9L1420.16 27.0369L1381.08 45.0738L1342 27.0369Z" fill="#7C2855"/>
<path opacity="0.8" fill-rule="evenodd" clip-rule="evenodd" d="M1342 27.0369V63.1108L1381.08 81.1477V45.0738L1342 27.0369Z" fill="#7C2855"/>
<path fill-rule="evenodd" clip-rule="evenodd" d="M1420.16 27.0369V63.1108L1381.08 81.1477V45.0738L1420.16 27.0369Z" fill="#7C2855"/>
<path opacity="0.6" fill-rule="evenodd" clip-rule="evenodd" d="M1264 27.0369L1303.08 9L1342.16 27.0369L1303.08 45.0738L1264 27.0369Z" fill="#005EB8"/>
<path opacity="0.8" fill-rule="evenodd" clip-rule="evenodd" d="M1264 27.0369V63.1108L1303.08 81.1477V45.0738L1264 27.0369Z" fill="#005EB8"/>
<path fill-rule="evenodd" clip-rule="evenodd" d="M1342.16 27.0369V63.1108L1303.08 81.1477V45.0738L1342.16 27.0369Z" fill="#005EB8"/>
<path opacity="0.6" fill-rule="evenodd" clip-rule="evenodd" d="M1186 27.0369L1225.08 9L1264.16 27.0369L1225.08 45.0738L1186 27.0369Z" fill="#005EB8"/>
<path opacity="0.8" fill-rule="evenodd" clip-rule="evenodd" d="M1186 27.0369V63.1108L1225.08 81.1477V45.0738L1186 27.0369Z" fill="#005EB8"/>
<path fill-rule="evenodd" clip-rule="evenodd" d="M1264.16 27.0369V63.1108L1225.08 81.1477V45.0738L1264.16 27.0369Z" fill="#005EB8"/>
<path opacity="0.6" fill-rule="evenodd" clip-rule="evenodd" d="M1108 27.0369L1147.08 9L1186.16 27.0369L1147.08 45.0738L1108 27.0369Z" fill="white" fill-opacity="0.4"/>
<path opacity="0.8" fill-rule="evenodd" clip-rule="evenodd" d="M1108 27.0369V63.1108L1147.08 81.1477V45.0738L1108 27.0369Z" fill="white" fill-opacity="0.4"/>
<path fill-rule="evenodd" clip-rule="evenodd" d="M1186.16 27.0369V63.1108L1147.08 81.1477V45.0738L1186.16 27.0369Z" fill="white" fill-opacity="0.4"/>
<path opacity="0.6" fill-rule="evenodd" clip-rule="evenodd" d="M1030 27.0369L1069.08 9L1108.16 27.0369L1069.08 45.0738L1030 27.0369Z" fill="#330072"/>
<path opacity="0.8" fill-rule="evenodd" clip-rule="evenodd" d="M1030 27.0369V63.1108L1069.08 81.1477V45.0738L1030 27.0369Z" fill="#330072"/>
<path fill-rule="evenodd" clip-rule="evenodd" d="M1108.16 27.0369V63.1108L1069.08 81.1477V45.0738L1108.16 27.0369Z" fill="#330072"/>
<path opacity="0.6" fill-rule="evenodd" clip-rule="evenodd" d="M952 27.0369L991.08 9L1030.16 27.0369L991.08 45.0738L952 27.0369Z" fill="white" fill-opacity="0.4"/>
<path opacity="0.8" fill-rule="evenodd" clip-rule="evenodd" d="M952 27.0369V63.1108L991.08 81.1477V45.0738L952 27.0369Z" fill="white" fill-opacity="0.4"/>
<path fill-rule="evenodd" clip-rule="evenodd" d="M1030.16 27.0369V63.1108L991.08 81.1477V45.0738L1030.16 27.0369Z" fill="white" fill-opacity="0.4"/>
<path opacity="0.6" fill-rule="evenodd" clip-rule="evenodd" d="M874 27.0369L913.08 9L952.16 27.0369L913.08 45.0738L874 27.0369Z" fill="#005EB8"/>
<path opacity="0.8" fill-rule="evenodd" clip-rule="evenodd" d="M874 27.0369V63.1108L913.08 81.1477V45.0738L874 27.0369Z" fill="#005EB8"/>
<path fill-rule="evenodd" clip-rule="evenodd" d="M952.16 27.0369V63.1108L913.08 81.1477V45.0738L952.16 27.0369Z" fill="#005EB8"/>
<path opacity="0.6" fill-rule="evenodd" clip-rule="evenodd" d="M796 27.0369L835.08 9L874.16 27.0369L835.08 45.0738L796 27.0369Z" fill="white" fill-opacity="0.4"/>
<path opacity="0.8" fill-rule="evenodd" clip-rule="evenodd" d="M796 27.0369V63.1108L835.08 81.1477V45.0738L796 27.0369Z" fill="white" fill-opacity="0.4"/>
<path fill-rule="evenodd" clip-rule="evenodd" d="M874.16 27.0369V63.1108L835.08 81.1477V45.0738L874.16 27.0369Z" fill="white" fill-opacity="0.4"/>
<path opacity="0.6" fill-rule="evenodd" clip-rule="evenodd" d="M718 27.0369L757.08 9L796.16 27.0369L757.08 45.0738L718 27.0369Z" fill="white" fill-opacity="0.4"/>
<path opacity="0.8" fill-rule="evenodd" clip-rule="evenodd" d="M718 27.0369V63.1108L757.08 81.1477V45.0738L718 27.0369Z" fill="white" fill-opacity="0.4"/>
<path fill-rule="evenodd" clip-rule="evenodd" d="M796.16 27.0369V63.1108L757.08 81.1477V45.0738L796.16 27.0369Z" fill="white" fill-opacity="0.4"/>
<path opacity="0.6" fill-rule="evenodd" clip-rule="evenodd" d="M640 27.0369L679.08 9L718.16 27.0369L679.08 45.0738L640 27.0369Z" fill="white" fill-opacity="0.4"/>
<path opacity="0.8" fill-rule="evenodd" clip-rule="evenodd" d="M640 27.0369V63.1108L679.08 81.1477V45.0738L640 27.0369Z" fill="white" fill-opacity="0.4"/>
<path fill-rule="evenodd" clip-rule="evenodd" d="M718.16 27.0369V63.1108L679.08 81.1477V45.0738L718.16 27.0369Z" fill="white" fill-opacity="0.4"/>
<path opacity="0.6" fill-rule="evenodd" clip-rule="evenodd" d="M562 27.0369L601.08 9L640.16 27.0369L601.08 45.0738L562 27.0369Z" fill="white" fill-opacity="0.4"/>
<path opacity="0.8" fill-rule="evenodd" clip-rule="evenodd" d="M562 27.0369V63.1108L601.08 81.1477V45.0738L562 27.0369Z" fill="white" fill-opacity="0.4"/>
<path fill-rule="evenodd" clip-rule="evenodd" d="M640.16 27.0369V63.1108L601.08 81.1477V45.0738L640.16 27.0369Z" fill="white" fill-opacity="0.4"/>
<path opacity="0.6" fill-rule="evenodd" clip-rule="evenodd" d="M484 27.0369L523.08 9L562.16 27.0369L523.08 45.0738L484 27.0369Z" fill="white" fill-opacity="0.4"/>
<path opacity="0.8" fill-rule="evenodd" clip-rule="evenodd" d="M484 27.0369V63.1108L523.08 81.1477V45.0738L484 27.0369Z" fill="white" fill-opacity="0.4"/>
<path fill-rule="evenodd" clip-rule="evenodd" d="M562.16 27.0369V63.1108L523.08 81.1477V45.0738L562.16 27.0369Z" fill="white" fill-opacity="0.4"/>
<path opacity="0.6" fill-rule="evenodd" clip-rule="evenodd" d="M406 27.0369L445.08 9L484.16 27.0369L445.08 45.0738L406 27.0369Z" fill="white" fill-opacity="0.4"/>
<path opacity="0.8" fill-rule="evenodd" clip-rule="evenodd" d="M406 27.0369V63.1108L445.08 81.1477V45.0738L406 27.0369Z" fill="white" fill-opacity="0.4"/>
<path fill-rule="evenodd" clip-rule="evenodd" d="M484.16 27.0369V63.1108L445.08 81.1477V45.0738L484.16 27.0369Z" fill="white" fill-opacity="0.4"/>
<path opacity="0.6" fill-rule="evenodd" clip-rule="evenodd" d="M328 27.0369L367.08 9L406.16 27.0369L367.08 45.0738L328 27.0369Z" fill="white" fill-opacity="0.4"/>
<path opacity="0.8" fill-rule="evenodd" clip-rule="evenodd" d="M328 27.0369V63.1108L367.08 81.1477V45.0738L328 27.0369Z" fill="white" fill-opacity="0.4"/>
<path fill-rule="evenodd" clip-rule="evenodd" d="M406.16 27.0369V63.1108L367.08 81.1477V45.0738L406.16 27.0369Z" fill="white" fill-opacity="0.4"/>
<path opacity="0.6" fill-rule="evenodd" clip-rule="evenodd" d="M250 27.0369L289.08 9L328.16 27.0369L289.08 45.0738L250 27.0369Z" fill="white" fill-opacity="0.4"/>
<path opacity="0.8" fill-rule="evenodd" clip-rule="evenodd" d="M250 27.0369V63.1108L289.08 81.1477V45.0738L250 27.0369Z" fill="white" fill-opacity="0.4"/>
<path fill-rule="evenodd" clip-rule="evenodd" d="M328.16 27.0369V63.1108L289.08 81.1477V45.0738L328.16 27.0369Z" fill="white" fill-opacity="0.4"/>
<path opacity="0.6" fill-rule="evenodd" clip-rule="evenodd" d="M172 27.0369L211.08 9L250.16 27.0369L211.08 45.0738L172 27.0369Z" fill="#005EB8"/>
<path opacity="0.8" fill-rule="evenodd" clip-rule="evenodd" d="M172 27.0369V63.1108L211.08 81.1477V45.0738L172 27.0369Z" fill="#005EB8"/>
<path fill-rule="evenodd" clip-rule="evenodd" d="M250.16 27.0369V63.1108L211.08 81.1477V45.0738L250.16 27.0369Z" fill="#005EB8"/>
<path opacity="0.6" fill-rule="evenodd" clip-rule="evenodd" d="M94 27.0369L133.08 9L172.16 27.0369L133.08 45.0738L94 27.0369Z" fill="white" fill-opacity="0.4"/>
<path opacity="0.8" fill-rule="evenodd" clip-rule="evenodd" d="M94 27.0369V63.1108L133.08 81.1477V45.0738L94 27.0369Z" fill="white" fill-opacity="0.4"/>
<path fill-rule="evenodd" clip-rule="evenodd" d="M172.16 27.0369V63.1108L133.08 81.1477V45.0738L172.16 27.0369Z" fill="white" fill-opacity="0.4"/>
<path opacity="0.6" fill-rule="evenodd" clip-rule="evenodd" d="M16 27.0369L55.08 9L94.16 27.0369L55.08 45.0738L16 27.0369Z" fill="#005EB8"/>
<path opacity="0.8" fill-rule="evenodd" clip-rule="evenodd" d="M16 27.0369V63.1108L55.08 81.1477V45.0738L16 27.0369Z" fill="#005EB8"/>
<path fill-rule="evenodd" clip-rule="evenodd" d="M94.16 27.0369V63.1108L55.08 81.1477V45.0738L94.16 27.0369Z" fill="#005EB8"/>
<path opacity="0.6" fill-rule="evenodd" clip-rule="evenodd" d="M-62 27.0369L-22.92 9L16.16 27.0369L-22.92 45.0738L-62 27.0369Z" fill="white" fill-opacity="0.4"/>
<path fill-rule="evenodd" clip-rule="evenodd" d="M16.16 27.0369V63.1108L-22.92 81.1477V45.0738L16.16 27.0369Z" fill="white" fill-opacity="0.4"/>
<path opacity="0.8" fill-rule="evenodd" clip-rule="evenodd" d="M1381 -26.9631V9.11077L1420.08 27.1477V-8.92615L1381 -26.9631Z" fill="#005EB8"/>
<path fill-rule="evenodd" clip-rule="evenodd" d="M1459.16 -26.9631V9.11077L1420.08 27.1477V-8.92615L1459.16 -26.9631Z" fill="#005EB8"/>
<path opacity="0.8" fill-rule="evenodd" clip-rule="evenodd" d="M1303 -26.9631V9.11077L1342.08 27.1477V-8.92615L1303 -26.9631Z" fill="white" fill-opacity="0.4"/>
<path fill-rule="evenodd" clip-rule="evenodd" d="M1381.16 -26.9631V9.11077L1342.08 27.1477V-8.92615L1381.16 -26.9631Z" fill="white" fill-opacity="0.4"/>
<path opacity="0.8" fill-rule="evenodd" clip-rule="evenodd" d="M1225 -26.9631V9.11077L1264.08 27.1477V-8.92615L1225 -26.9631Z" fill="white" fill-opacity="0.4"/>
<path fill-rule="evenodd" clip-rule="evenodd" d="M1303.16 -26.9631V9.11077L1264.08 27.1477V-8.92615L1303.16 -26.9631Z" fill="white" fill-opacity="0.4"/>
<path opacity="0.8" fill-rule="evenodd" clip-rule="evenodd" d="M1147 -26.9631V9.11077L1186.08 27.1477V-8.92615L1147 -26.9631Z" fill="white" fill-opacity="0.4"/>
<path fill-rule="evenodd" clip-rule="evenodd" d="M1225.16 -26.9631V9.11077L1186.08 27.1477V-8.92615L1225.16 -26.9631Z" fill="white" fill-opacity="0.4"/>
<path opacity="0.8" fill-rule="evenodd" clip-rule="evenodd" d="M1069 -26.9631V9.11077L1108.08 27.1477V-8.92615L1069 -26.9631Z" fill="white" fill-opacity="0.4"/>
<path fill-rule="evenodd" clip-rule="evenodd" d="M1147.16 -26.9631V9.11077L1108.08 27.1477V-8.92615L1147.16 -26.9631Z" fill="white" fill-opacity="0.4"/>
<path opacity="0.8" fill-rule="evenodd" clip-rule="evenodd" d="M991 -26.9631V9.11077L1030.08 27.1477V-8.92615L991 -26.9631Z" fill="white" fill-opacity="0.4"/>
<path fill-rule="evenodd" clip-rule="evenodd" d="M1069.16 -26.9631V9.11077L1030.08 27.1477V-8.92615L1069.16 -26.9631Z" fill="white" fill-opacity="0.4"/>
<path opacity="0.8" fill-rule="evenodd" clip-rule="evenodd" d="M913 -26.9631V9.11077L952.08 27.1477V-8.92615L913 -26.9631Z" fill="white" fill-opacity="0.4"/>
<path fill-rule="evenodd" clip-rule="evenodd" d="M991.16 -26.9631V9.11077L952.08 27.1477V-8.92615L991.16 -26.9631Z" fill="white" fill-opacity="0.4"/>
<path opacity="0.8" fill-rule="evenodd" clip-rule="evenodd" d="M835 -26.9631V9.11077L874.08 27.1477V-8.92615L835 -26.9631Z" fill="white" fill-opacity="0.4"/>
<path fill-rule="evenodd" clip-rule="evenodd" d="M913.16 -26.9631V9.11077L874.08 27.1477V-8.92615L913.16 -26.9631Z" fill="white" fill-opacity="0.4"/>
<path opacity="0.8" fill-rule="evenodd" clip-rule="evenodd" d="M757 -26.9631V9.11077L796.08 27.1477V-8.92615L757 -26.9631Z" fill="white" fill-opacity="0.4"/>
<path fill-rule="evenodd" clip-rule="evenodd" d="M835.16 -26.9631V9.11077L796.08 27.1477V-8.92615L835.16 -26.9631Z" fill="white" fill-opacity="0.4"/>
<path opacity="0.8" fill-rule="evenodd" clip-rule="evenodd" d="M679 -26.9631V9.11077L718.08 27.1477V-8.92615L679 -26.9631Z" fill="#330072"/>
<path fill-rule="evenodd" clip-rule="evenodd" d="M757.16 -26.9631V9.11077L718.08 27.1477V-8.92615L757.16 -26.9631Z" fill="#330072"/>
<path opacity="0.8" fill-rule="evenodd" clip-rule="evenodd" d="M601 -26.9631V9.11077L640.08 27.1477V-8.92615L601 -26.9631Z" fill="white" fill-opacity="0.4"/>
<path fill-rule="evenodd" clip-rule="evenodd" d="M679.16 -26.9631V9.11077L640.08 27.1477V-8.92615L679.16 -26.9631Z" fill="white" fill-opacity="0.4"/>
<path opacity="0.8" fill-rule="evenodd" clip-rule="evenodd" d="M523 -26.9631V9.11077L562.08 27.1477V-8.92615L523 -26.9631Z" fill="white" fill-opacity="0.4"/>
<path fill-rule="evenodd" clip-rule="evenodd" d="M601.16 -26.9631V9.11077L562.08 27.1477V-8.92615L601.16 -26.9631Z" fill="white" fill-opacity="0.4"/>
<path opacity="0.8" fill-rule="evenodd" clip-rule="evenodd" d="M445 -26.9631V9.11077L484.08 27.1477V-8.92615L445 -26.9631Z" fill="#005EB8"/>
<path fill-rule="evenodd" clip-rule="evenodd" d="M523.16 -26.9631V9.11077L484.08 27.1477V-8.92615L523.16 -26.9631Z" fill="#005EB8"/>
<path opacity="0.8" fill-rule="evenodd" clip-rule="evenodd" d="M367 -26.9631V9.11077L406.08 27.1477V-8.92615L367 -26.9631Z" fill="white" fill-opacity="0.4"/>
<path fill-rule="evenodd" clip-rule="evenodd" d="M445.16 -26.9631V9.11077L406.08 27.1477V-8.92615L445.16 -26.9631Z" fill="white" fill-opacity="0.4"/>
<path opacity="0.8" fill-rule="evenodd" clip-rule="evenodd" d="M289 -26.9631V9.11077L328.08 27.1477V-8.92615L289 -26.9631Z" fill="white" fill-opacity="0.4"/>
<path fill-rule="evenodd" clip-rule="evenodd" d="M367.16 -26.9631V9.11077L328.08 27.1477V-8.92615L367.16 -26.9631Z" fill="white" fill-opacity="0.4"/>
<path opacity="0.8" fill-rule="evenodd" clip-rule="evenodd" d="M211 -26.9631V9.11077L250.08 27.1477V-8.92615L211 -26.9631Z" fill="white" fill-opacity="0.4"/>
<path fill-rule="evenodd" clip-rule="evenodd" d="M289.16 -26.9631V9.11077L250.08 27.1477V-8.92615L289.16 -26.9631Z" fill="white" fill-opacity="0.4"/>
<path opacity="0.8" fill-rule="evenodd" clip-rule="evenodd" d="M133 -26.9631V9.11077L172.08 27.1477V-8.92615L133 -26.9631Z" fill="#330072"/>
<path fill-rule="evenodd" clip-rule="evenodd" d="M211.16 -26.9631V9.11077L172.08 27.1477V-8.92615L211.16 -26.9631Z" fill="#330072"/>
<path opacity="0.8" fill-rule="evenodd" clip-rule="evenodd" d="M55 -26.9631V9.11077L94.08 27.1477V-8.92615L55 -26.9631Z" fill="white" fill-opacity="0.4"/>
<path fill-rule="evenodd" clip-rule="evenodd" d="M133.16 -26.9631V9.11077L94.08 27.1477V-8.92615L133.16 -26.9631Z" fill="white" fill-opacity="0.4"/>
<path opacity="0.8" fill-rule="evenodd" clip-rule="evenodd" d="M-23 -26.9631V9.11077L16.08 27.1477V-8.92615L-23 -26.9631Z" fill="#005EB8"/>
<path fill-rule="evenodd" clip-rule="evenodd" d="M55.16 -26.9631V9.11077L16.08 27.1477V-8.92615L55.16 -26.9631Z" fill="#005EB8"/>
</g>
<defs>
<clipPath id="clip0_2271_20017">
<rect width="1440" height="328" fill="white"/>
</clipPath>
</defs>
</svg>
